master_5.ufo
<glyph name="numbersign" format="2">
  <advance width="3807"/>
  <unicode hex="0023"/>
  <outline>
    <contour>
      <point x="953" y="0" type="line"/>
      <point x="955" y="0" type="line"/>
      <point x="1034" y="274" type="line"/>
      <point x="2816" y="274" type="line"/>
      <point x="2737" y="0" type="line"/>
      <point x="2739" y="0" type="line"/>
      <point x="2818" y="274" type="line"/>
      <point x="3478" y="274" type="line"/>
      <point x="3478" y="736" type="line"/>
      <point x="2951" y="736" type="line"/>
      <point x="2989" y="868" type="line"/>
      <point x="3693" y="868" type="line"/>
      <point x="3693" y="1330" type="line"/>
      <point x="3121" y="1330" type="line"/>
      <point x="3199" y="1600" type="line"/>
      <point x="3197" y="1600" type="line"/>
      <point x="3119" y="1330" type="line"/>
      <point x="1337" y="1330" type="line"/>
      <point x="1415" y="1600" type="line"/>
      <point x="1413" y="1600" type="line"/>
      <point x="1335" y="1330" type="line"/>
      <point x="672" y="1330" type="line"/>
      <point x="672" y="868" type="line"/>
      <point x="1203" y="868" type="line"/>
      <point x="1165" y="736" type="line"/>
      <point x="457" y="736" type="line"/>
      <point x="457" y="274" type="line"/>
      <point x="1032" y="274" type="line"/>
    </contour>
    <contour>
      <point x="1167" y="736" type="line"/>
      <point x="1205" y="868" type="line"/>
      <point x="2987" y="868" type="line"/>
      <point x="2949" y="736" type="line"/>
    </contour>
  </outline>
</glyph>
<glyph name="ampersand" format="2">
  <advance width="4875"/>
  <unicode hex="0026"/>
  <outline>
    <contour>
      <point x="4472" y="0" type="line"/>
      <point x="4674" y="0" type="line"/>
      <point x="3546" y="1095" type="line"/>
      <point x="3502" y="1095" type="line"/>
      <point x="2596" y="482" type="line"/>
      <point x="212" y="470" type="line"/>
      <point x="212" y="528" type="line"/>
      <point x="1290" y="535" type="line"/>
      <point x="1290" y="822" type="line"/>
      <point x="1617" y="1138" type="line"/>
      <point x="3696" y="1138" type="line"/>
      <point x="3696" y="1065" type="line"/>
      <point x="3698" y="1065" type="line"/>
      <point x="3698" y="1600" type="line"/>
      <point x="2196" y="1600" type="line"/>
      <point x="1395" y="1069" type="line"/>
      <point x="1395" y="1022" type="line"/>
      <point x="210" y="1022" type="line"/>
      <point x="210" y="0" type="line"/>
      <point x="2596" y="0" type="line"/>
      <point x="3503" y="763" type="line"/>
      <point x="3545" y="763" type="line"/>
    </contour>
  </outline>
</glyph>
<glyph name="three" format="2">
  <advance width="3955"/>
  <unicode hex="0033"/>
  <outline>
    <contour>
      <point x="460" y="0" type="curve" smooth="yes"/>
      <point x="3484" y="0" type="line" smooth="yes"/>
      <point x="3529" y="0"/>
      <point x="3554" y="24"/>
      <point x="3554" y="70" type="curve" smooth="yes"/>
      <point x="3555" y="921" type="line" smooth="yes"/>
      <point x="3555" y="966"/>
      <point x="3530" y="991"/>
      <point x="3485" y="991" type="curve" smooth="yes"/>
      <point x="3012" y="991" type="line"/>
      <point x="3275" y="1102" type="line" smooth="yes"/>
      <point x="3314" y="1118"/>
      <point x="3347" y="1139"/>
      <point x="3347" y="1163" type="curve" smooth="yes"/>
      <point x="3347" y="1530" type="line" smooth="yes"/>
      <point x="3347" y="1575"/>
      <point x="3322" y="1600"/>
      <point x="3277" y="1600" type="curve" smooth="yes"/>
      <point x="642" y="1600" type="line" smooth="yes"/>
      <point x="597" y="1600"/>
      <point x="572" y="1575"/>
      <point x="572" y="1530" type="curve" smooth="yes"/>
      <point x="572" y="1099" type="line"/>
      <point x="574" y="1099" type="line"/>
      <point x="574" y="1188" type="line" smooth="yes"/>
      <point x="574" y="1194"/>
      <point x="578" y="1198"/>
      <point x="584" y="1198" type="curve" smooth="yes"/>
      <point x="3335" y="1198" type="line" smooth="yes"/>
      <point x="3341" y="1198"/>
      <point x="3345" y="1194"/>
      <point x="3345" y="1188" type="curve" smooth="yes"/>
      <point x="3345" y="1164" type="line" smooth="yes"/>
      <point x="3345" y="1140"/>
      <point x="3309" y="1119"/>
      <point x="3273" y="1104" type="curve" smooth="yes"/>
      <point x="3004" y="991" type="line"/>
      <point x="1321" y="991" type="line"/>
      <point x="1321" y="589" type="line"/>
      <point x="3543" y="589" type="line" smooth="yes"/>
      <point x="3549" y="589"/>
      <point x="3553" y="585"/>
      <point x="3553" y="579" type="curve" smooth="yes"/>
      <point x="3552" y="412" type="line" smooth="yes"/>
      <point x="3552" y="405"/>
      <point x="3548" y="402"/>
      <point x="3542" y="402" type="curve" smooth="yes"/>
      <point x="402" y="402" type="line" smooth="yes"/>
      <point x="396" y="402"/>
      <point x="392" y="406"/>
      <point x="392" y="412" type="curve" smooth="yes"/>
      <point x="392" y="522" type="line"/>
      <point x="390" y="522" type="line"/>
      <point x="390" y="70" type="line" smooth="yes"/>
      <point x="390" y="25"/>
      <point x="415" y="0"/>
    </contour>
  </outline>
</glyph>
<glyph name="five" format="2">
  <advance width="3859"/>
  <unicode hex="0035"/>
  <outline>
    <contour>
      <point x="611" y="0" type="curve" smooth="yes"/>
      <point x="3289" y="0" type="line" smooth="yes"/>
      <point x="3334" y="0"/>
      <point x="3359" y="25"/>
      <point x="3359" y="70" type="curve" smooth="yes"/>
      <point x="3359" y="931" type="line" smooth="yes"/>
      <point x="3359" y="976"/>
      <point x="3334" y="1001"/>
      <point x="3289" y="1001" type="curve" smooth="yes"/>
      <point x="552" y="1001" type="line" smooth="yes"/>
      <point x="546" y="1001"/>
      <point x="542" y="1005"/>
      <point x="542" y="1011" type="curve" smooth="yes"/>
      <point x="542" y="1188" type="line" smooth="yes"/>
      <point x="542" y="1194"/>
      <point x="546" y="1198"/>
      <point x="552" y="1198" type="curve" smooth="yes"/>
      <point x="3359" y="1198" type="line"/>
      <point x="3359" y="1600" type="line"/>
      <point x="610" y="1600" type="line" smooth="yes"/>
      <point x="565" y="1600"/>
      <point x="540" y="1575"/>
      <point x="540" y="1530" type="curve" smooth="yes"/>
      <point x="540" y="669" type="line" smooth="yes"/>
      <point x="540" y="624"/>
      <point x="565" y="599"/>
      <point x="610" y="599" type="curve" smooth="yes"/>
      <point x="3347" y="599" type="line" smooth="yes"/>
      <point x="3353" y="599"/>
      <point x="3357" y="595"/>
      <point x="3357" y="589" type="curve" smooth="yes"/>
      <point x="3357" y="412" type="line" smooth="yes"/>
      <point x="3357" y="406"/>
      <point x="3353" y="402"/>
      <point x="3347" y="402" type="curve" smooth="yes"/>
      <point x="553" y="402" type="line" smooth="yes"/>
      <point x="547" y="402"/>
      <point x="543" y="406"/>
      <point x="543" y="412" type="curve" smooth="yes"/>
      <point x="543" y="502" type="line"/>
      <point x="541" y="502" type="line"/>
      <point x="541" y="70" type="line" smooth="yes"/>
      <point x="541" y="25"/>
      <point x="566" y="0"/>
    </contour>
  </outline>
</glyph>
<glyph name="eight" format="2">
  <advance width="4037"/>
  <unicode hex="0038"/>
  <outline>
    <contour>
      <point x="510" y="0" type="curve" smooth="yes"/>
      <point x="3527" y="0" type="line" smooth="yes"/>
      <point x="3572" y="0"/>
      <point x="3597" y="25"/>
      <point x="3597" y="70" type="curve" smooth="yes"/>
      <point x="3597" y="468" type="line" smooth="yes"/>
      <point x="3597" y="506"/>
      <point x="3582" y="533"/>
      <point x="3549" y="552" type="curve" smooth="yes"/>
      <point x="3116" y="799" type="line"/>
      <point x="3116" y="799" type="line"/>
      <point x="3414" y="799" type="line" smooth="yes"/>
      <point x="3459" y="799"/>
      <point x="3484" y="824"/>
      <point x="3484" y="869" type="curve" smooth="yes"/>
      <point x="3484" y="1530" type="line" smooth="yes"/>
      <point x="3484" y="1575"/>
      <point x="3459" y="1600"/>
      <point x="3414" y="1600" type="curve" smooth="yes"/>
      <point x="603" y="1600" type="line" smooth="yes"/>
      <point x="558" y="1600"/>
      <point x="533" y="1575"/>
      <point x="533" y="1530" type="curve" smooth="yes"/>
      <point x="533" y="1125" type="line" smooth="yes"/>
      <point x="533" y="1088"/>
      <point x="547" y="1062"/>
      <point x="577" y="1040" type="curve" smooth="yes"/>
      <point x="910" y="801" type="line"/>
      <point x="910" y="801" type="line"/>
      <point x="510" y="801" type="line" smooth="yes"/>
      <point x="465" y="801"/>
      <point x="440" y="776"/>
      <point x="440" y="731" type="curve" smooth="yes"/>
      <point x="440" y="70" type="line" smooth="yes"/>
      <point x="440" y="25"/>
      <point x="465" y="0"/>
    </contour>
    <contour>
      <point x="442" y="472" type="curve" smooth="yes"/>
      <point x="442" y="568" type="line" smooth="yes"/>
      <point x="442" y="613"/>
      <point x="467" y="638"/>
      <point x="512" y="638" type="curve" smooth="yes"/>
      <point x="3113" y="639" type="line"/>
      <point x="3510" y="411" type="line" smooth="yes"/>
      <point x="3558" y="383"/>
      <point x="3594" y="372"/>
      <point x="3594" y="383" type="curve" smooth="yes"/>
      <point x="3594" y="383" type="line" smooth="yes"/>
      <point x="3594" y="395"/>
      <point x="3569" y="402"/>
      <point x="3524" y="402" type="curve" smooth="yes"/>
      <point x="512" y="402" type="line" smooth="yes"/>
      <point x="467" y="402"/>
      <point x="442" y="427"/>
    </contour>
    <contour>
      <point x="914" y="971" type="line"/>
      <point x="620" y="1181" type="line" smooth="yes"/>
      <point x="573" y="1215"/>
      <point x="535" y="1232"/>
      <point x="535" y="1220" type="curve" smooth="yes"/>
      <point x="535" y="1220" type="line" smooth="yes"/>
      <point x="535" y="1206"/>
      <point x="560" y="1198"/>
      <point x="605" y="1198" type="curve" smooth="yes"/>
      <point x="3411" y="1198" type="line" smooth="yes"/>
      <point x="3456" y="1198"/>
      <point x="3481" y="1173"/>
      <point x="3481" y="1128" type="curve" smooth="yes"/>
      <point x="3481" y="1041" type="line" smooth="yes"/>
      <point x="3481" y="996"/>
      <point x="3456" y="971"/>
      <point x="3411" y="971" type="curve" smooth="yes"/>
    </contour>
  </outline>
</glyph>
<glyph name="question" format="2">
  <advance width="4037"/>
  <unicode hex="003F"/>
  <outline>
    <contour>
      <point x="1482" y="495" type="line"/>
      <point x="3192" y="495" type="line"/>
      <point x="3772" y="945" type="line"/>
      <point x="3772" y="1600" type="line"/>
      <point x="425" y="1600" type="line"/>
      <point x="425" y="980" type="line"/>
      <point x="427" y="980" type="line"/>
      <point x="427" y="1128" type="line"/>
      <point x="3770" y="1128" type="line"/>
      <point x="3770" y="1209" type="line"/>
      <point x="3462" y="973" type="line"/>
      <point x="1482" y="973" type="line"/>
    </contour>
    <component base="period" xOffset="1812"/>
  </outline>
</glyph>
<glyph name="C" format="2">
  <advance width="4666"/>
  <unicode hex="0043"/>
  <anchor x="2333" y="0" name="bottom"/>
  <anchor x="2333" y="1600" name="top"/>
  <outline>
    <contour>
      <point x="545" y="0" type="curve" smooth="yes"/>
      <point x="3982" y="0" type="line" smooth="yes"/>
      <point x="4017" y="0"/>
      <point x="4037" y="20"/>
      <point x="4037" y="55" type="curve" smooth="yes"/>
      <point x="4037" y="605" type="line"/>
      <point x="4035" y="605" type="line"/>
      <point x="4035" y="535" type="line" smooth="yes"/>
      <point x="4035" y="500"/>
      <point x="4015" y="480"/>
      <point x="3980" y="480" type="curve" smooth="yes"/>
      <point x="547" y="480" type="line" smooth="yes"/>
      <point x="512" y="480"/>
      <point x="492" y="500"/>
      <point x="492" y="535" type="curve" smooth="yes"/>
      <point x="492" y="806" type="line" smooth="yes"/>
      <point x="492" y="834"/>
      <point x="498" y="858"/>
      <point x="520" y="874" type="curve" smooth="yes"/>
      <point x="810" y="1092" type="line" smooth="yes"/>
      <point x="832" y="1108"/>
      <point x="850" y="1120"/>
      <point x="878" y="1120" type="curve" smooth="yes"/>
      <point x="3976" y="1120" type="line" smooth="yes"/>
      <point x="4011" y="1120"/>
      <point x="4031" y="1100"/>
      <point x="4031" y="1065" type="curve" smooth="yes"/>
      <point x="4031" y="947" type="line"/>
      <point x="4033" y="947" type="line"/>
      <point x="4033" y="1545" type="line" smooth="yes"/>
      <point x="4033" y="1580"/>
      <point x="4013" y="1600"/>
      <point x="3978" y="1600" type="curve" smooth="yes"/>
      <point x="1027" y="1600" type="line" smooth="yes"/>
      <point x="999" y="1600"/>
      <point x="979" y="1592"/>
      <point x="959" y="1572" type="curve" smooth="yes"/>
      <point x="518" y="1133" type="line" smooth="yes"/>
      <point x="498" y="1113"/>
      <point x="490" y="1093"/>
      <point x="490" y="1065" type="curve" smooth="yes"/>
      <point x="490" y="55" type="line" smooth="yes"/>
      <point x="490" y="20"/>
      <point x="510" y="0"/>
    </contour>
  </outline>
</glyph>
<glyph name="D" format="2">
  <advance width="4507"/>
  <unicode hex="0044"/>
  <anchor x="2385" y="0" name="bottom"/>
  <anchor x="2385" y="800" name="center"/>
  <anchor x="2385" y="1600" name="top"/>
  <outline>
    <contour>
      <point x="595" y="0" type="curve" smooth="yes"/>
      <point x="3481" y="0" type="line" smooth="yes"/>
      <point x="3509" y="0"/>
      <point x="3530" y="8"/>
      <point x="3549" y="28" type="curve" smooth="yes"/>
      <point x="3989" y="469" type="line" smooth="yes"/>
      <point x="4009" y="489"/>
      <point x="4017" y="509"/>
      <point x="4017" y="537" type="curve" smooth="yes"/>
      <point x="4017" y="1545" type="line" smooth="yes"/>
      <point x="4017" y="1580"/>
      <point x="3997" y="1600"/>
      <point x="3962" y="1600" type="curve" smooth="yes"/>
      <point x="595" y="1600" type="line" smooth="yes"/>
      <point x="560" y="1600"/>
      <point x="540" y="1580"/>
      <point x="540" y="1545" type="curve" smooth="yes"/>
      <point x="540" y="55" type="line" smooth="yes"/>
      <point x="540" y="20"/>
      <point x="560" y="0"/>
    </contour>
    <contour>
      <point x="542" y="535" type="curve" smooth="yes"/>
      <point x="542" y="1083" type="line" smooth="yes"/>
      <point x="542" y="1118"/>
      <point x="562" y="1138"/>
      <point x="597" y="1138" type="curve" smooth="yes"/>
      <point x="3960" y="1138" type="line" smooth="yes"/>
      <point x="3995" y="1138"/>
      <point x="4015" y="1118"/>
      <point x="4015" y="1083" type="curve" smooth="yes"/>
      <point x="4015" y="876" type="line" smooth="yes"/>
      <point x="4015" y="848"/>
      <point x="4009" y="826"/>
      <point x="3987" y="808" type="curve" smooth="yes"/>
      <point x="3628" y="508" type="line" smooth="yes"/>
      <point x="3606" y="490"/>
      <point x="3588" y="480"/>
      <point x="3560" y="480" type="curve" smooth="yes"/>
      <point x="597" y="498" type="line" smooth="yes"/>
      <point x="562" y="498"/>
      <point x="542" y="500"/>
    </contour>
  </outline>
</glyph>
<glyph name="J" format="2">
  <advance width="4216"/>
  <unicode hex="004A"/>
  <anchor x="2183" y="0" name="bottom"/>
  <anchor x="2183" y="1600" name="top"/>
  <outline>
    <contour>
      <point x="545" y="0" type="curve" smooth="yes"/>
      <point x="3190" y="0" type="line" smooth="yes"/>
      <point x="3218" y="0"/>
      <point x="3238" y="8"/>
      <point x="3258" y="28" type="curve" smooth="yes"/>
      <point x="3698" y="459" type="line" smooth="yes"/>
      <point x="3718" y="479"/>
      <point x="3726" y="499"/>
      <point x="3726" y="527" type="curve" smooth="yes"/>
      <point x="3726" y="1545" type="line" smooth="yes"/>
      <point x="3726" y="1580"/>
      <point x="3706" y="1600"/>
      <point x="3671" y="1600" type="curve" smooth="yes"/>
      <point x="1837" y="1600" type="line"/>
      <point x="1842" y="1118" type="line"/>
      <point x="3669" y="1118" type="line" smooth="yes"/>
      <point x="3704" y="1118"/>
      <point x="3724" y="1098"/>
      <point x="3724" y="1063" type="curve" smooth="yes"/>
      <point x="3724" y="976" type="line" smooth="yes"/>
      <point x="3724" y="948"/>
      <point x="3717" y="927"/>
      <point x="3696" y="908" type="curve" smooth="yes"/>
      <point x="3257" y="508" type="line" smooth="yes"/>
      <point x="3237" y="489"/>
      <point x="3217" y="480"/>
      <point x="3189" y="480" type="curve" smooth="yes"/>
      <point x="548" y="480" type="line" smooth="yes"/>
      <point x="513" y="480"/>
      <point x="493" y="500"/>
      <point x="493" y="535" type="curve" smooth="yes"/>
      <point x="493" y="702" type="line"/>
      <point x="490" y="702" type="line"/>
      <point x="490" y="55" type="line" smooth="yes"/>
      <point x="490" y="20"/>
      <point x="510" y="0"/>
    </contour>
  </outline>
</glyph>
<glyph name="L" format="2">
  <advance width="3706"/>
  <unicode hex="004C"/>
  <anchor x="1853" y="0" name="bottom"/>
  <anchor x="1853" y="800" name="center"/>
  <anchor x="1853" y="1600" name="top"/>
  <anchor x="3686" y="1600" name="topright"/>
  <outline>
    <contour>
      <point x="545" y="0" type="curve" smooth="yes"/>
      <point x="3568" y="0" type="line"/>
      <point x="3568" y="535" type="line"/>
      <point x="547" y="535" type="line" smooth="yes"/>
      <point x="512" y="535"/>
      <point x="492" y="555"/>
      <point x="492" y="590" type="curve" smooth="yes"/>
      <point x="492" y="1600" type="line"/>
      <point x="490" y="1600" type="line"/>
      <point x="490" y="55" type="line" smooth="yes"/>
      <point x="490" y="20"/>
      <point x="510" y="0"/>
    </contour>
  </outline>
</glyph>
<glyph name="O" format="2">
  <advance width="4457"/>
  <unicode hex="004F"/>
  <anchor x="2279" y="0" name="bottom"/>
  <anchor x="2279" y="800" name="center"/>
  <anchor x="4101" y="10" name="ogonek"/>
  <anchor x="2279" y="1600" name="top"/>
  <anchor x="20" y="1600" name="topleft"/>
  <anchor x="4537" y="1600" name="topright"/>
  <outline>
    <contour>
      <point x="545" y="0" type="curve" smooth="yes"/>
      <point x="3431" y="0" type="line" smooth="yes"/>
      <point x="3459" y="0"/>
      <point x="3480" y="8"/>
      <point x="3499" y="28" type="curve" smooth="yes"/>
      <point x="3939" y="469" type="line" smooth="yes"/>
      <point x="3961" y="492"/>
      <point x="3967" y="509"/>
      <point x="3967" y="537" type="curve" smooth="yes"/>
      <point x="3967" y="1545" type="line" smooth="yes"/>
      <point x="3967" y="1580"/>
      <point x="3947" y="1600"/>
      <point x="3912" y="1600" type="curve" smooth="yes"/>
      <point x="1027" y="1600" type="line" smooth="yes"/>
      <point x="999" y="1600"/>
      <point x="980" y="1593"/>
      <point x="959" y="1572" type="curve" smooth="yes"/>
      <point x="518" y="1133" type="line" smooth="yes"/>
      <point x="497" y="1112"/>
      <point x="490" y="1093"/>
      <point x="490" y="1065" type="curve" smooth="yes"/>
      <point x="490" y="55" type="line" smooth="yes"/>
      <point x="490" y="20"/>
      <point x="510" y="0"/>
    </contour>
    <contour>
      <point x="547" y="480" type="line" smooth="yes"/>
      <point x="512" y="480"/>
      <point x="492" y="500"/>
      <point x="492" y="535" type="curve" smooth="yes"/>
      <point x="492" y="806" type="line" smooth="yes"/>
      <point x="492" y="834"/>
      <point x="497" y="857"/>
      <point x="520" y="874" type="curve" smooth="yes"/>
      <point x="810" y="1092" type="line" smooth="yes"/>
      <point x="833" y="1109"/>
      <point x="850" y="1120"/>
      <point x="878" y="1120" type="curve" smooth="yes"/>
      <point x="3910" y="1120" type="line" smooth="yes"/>
      <point x="3945" y="1120"/>
      <point x="3965" y="1100"/>
      <point x="3965" y="1065" type="curve" smooth="yes"/>
      <point x="3965" y="796" type="line" smooth="yes"/>
      <point x="3965" y="768"/>
      <point x="3960" y="745"/>
      <point x="3937" y="728" type="curve" smooth="yes"/>
      <point x="3648" y="508" type="line" smooth="yes"/>
      <point x="3625" y="491"/>
      <point x="3608" y="480"/>
      <point x="3580" y="480" type="curve" smooth="yes"/>
    </contour>
  </outline>
</glyph>
<glyph name="S" format="2">
  <advance width="4453"/>
  <unicode hex="0053"/>
  <anchor x="2227" y="0" name="bottom"/>
  <anchor x="2227" y="1600" name="top"/>
  <outline>
    <contour>
      <point x="545" y="0" type="curve" smooth="yes"/>
      <point x="3427" y="0" type="line" smooth="yes"/>
      <point x="3455" y="0"/>
      <point x="3475" y="8"/>
      <point x="3494" y="29" type="curve" smooth="yes"/>
      <point x="3936" y="501" type="line" smooth="yes"/>
      <point x="3955" y="522"/>
      <point x="3963" y="541"/>
      <point x="3963" y="569" type="curve" smooth="yes"/>
      <point x="3963" y="937" type="line" smooth="yes"/>
      <point x="3963" y="972"/>
      <point x="3943" y="992"/>
      <point x="3908" y="992" type="curve" smooth="yes"/>
      <point x="550" y="992" type="line" smooth="yes"/>
      <point x="515" y="992"/>
      <point x="495" y="977"/>
      <point x="495" y="949" type="curve" smooth="yes"/>
      <point x="495" y="949" type="line" smooth="yes"/>
      <point x="495" y="927"/>
      <point x="527" y="938"/>
      <point x="563" y="971" type="curve" smooth="yes"/>
      <point x="725" y="1118" type="line" smooth="yes"/>
      <point x="746" y="1137"/>
      <point x="765" y="1146"/>
      <point x="793" y="1146" type="curve" smooth="yes"/>
      <point x="3897" y="1146" type="line" smooth="yes"/>
      <point x="3932" y="1146"/>
      <point x="3952" y="1126"/>
      <point x="3952" y="1091" type="curve" smooth="yes"/>
      <point x="3952" y="1014" type="line"/>
      <point x="3954" y="1014" type="line"/>
      <point x="3954" y="1545" type="line" smooth="yes"/>
      <point x="3954" y="1580"/>
      <point x="3934" y="1600"/>
      <point x="3899" y="1600" type="curve" smooth="yes"/>
      <point x="1030" y="1600" type="line" smooth="yes"/>
      <point x="1002" y="1600"/>
      <point x="982" y="1591"/>
      <point x="963" y="1570" type="curve" smooth="yes"/>
      <point x="520" y="1094" type="line" smooth="yes"/>
      <point x="501" y="1074"/>
      <point x="493" y="1054"/>
      <point x="493" y="1026" type="curve" smooth="yes"/>
      <point x="493" y="663" type="line" smooth="yes"/>
      <point x="493" y="628"/>
      <point x="513" y="608"/>
      <point x="548" y="608" type="curve" smooth="yes"/>
      <point x="3906" y="608" type="line" smooth="yes"/>
      <point x="3941" y="608"/>
      <point x="3961" y="626"/>
      <point x="3961" y="657" type="curve" smooth="yes"/>
      <point x="3961" y="657" type="line" smooth="yes"/>
      <point x="3961" y="683"/>
      <point x="3928" y="678"/>
      <point x="3893" y="645" type="curve" smooth="yes"/>
      <point x="3720" y="480" type="line" smooth="yes"/>
      <point x="3701" y="461"/>
      <point x="3679" y="454"/>
      <point x="3652" y="454" type="curve" smooth="yes"/>
      <point x="547" y="454" type="line" smooth="yes"/>
      <point x="512" y="454"/>
      <point x="492" y="474"/>
      <point x="492" y="509" type="curve" smooth="yes"/>
      <point x="492" y="575" type="line"/>
      <point x="490" y="575" type="line"/>
      <point x="490" y="55" type="line" smooth="yes"/>
      <point x="490" y="20"/>
      <point x="510" y="0"/>
    </contour>
  </outline>
</glyph>
<glyph name="X" format="2">
  <advance width="4308"/>
  <unicode hex="0058"/>
  <outline>
    <contour>
      <point x="1799" y="499" type="line"/>
      <point x="3851" y="499" type="line" smooth="yes"/>
      <point x="3886" y="499"/>
      <point x="3906" y="479"/>
      <point x="3906" y="444" type="curve" smooth="yes"/>
      <point x="3906" y="0" type="line"/>
      <point x="3908" y="0" type="line"/>
      <point x="3908" y="746" type="line" smooth="yes"/>
      <point x="3908" y="781"/>
      <point x="3888" y="801"/>
      <point x="3853" y="801" type="curve" smooth="yes"/>
      <point x="2523" y="801" type="line"/>
      <point x="3794" y="1034" type="line" smooth="yes"/>
      <point x="3827" y="1040"/>
      <point x="3844" y="1060"/>
      <point x="3844" y="1093" type="curve" smooth="yes"/>
      <point x="3844" y="1600" type="line"/>
      <point x="3842" y="1600" type="line"/>
      <point x="3842" y="1394" type="line" smooth="yes"/>
      <point x="3842" y="1361"/>
      <point x="3825" y="1341"/>
      <point x="3792" y="1335" type="curve" smooth="yes"/>
      <point x="2511" y="1101" type="line"/>
      <point x="527" y="1101" type="line" smooth="yes"/>
      <point x="492" y="1101"/>
      <point x="472" y="1121"/>
      <point x="472" y="1156" type="curve" smooth="yes"/>
      <point x="472" y="1600" type="line"/>
      <point x="470" y="1600" type="line"/>
      <point x="470" y="854" type="line" smooth="yes"/>
      <point x="470" y="819"/>
      <point x="490" y="799"/>
      <point x="525" y="799" type="curve" smooth="yes"/>
      <point x="1787" y="799" type="line"/>
      <point x="450" y="563" type="line" smooth="yes"/>
      <point x="417" y="557"/>
      <point x="400" y="536"/>
      <point x="400" y="503" type="curve" smooth="yes"/>
      <point x="400" y="0" type="line"/>
      <point x="402" y="0" type="line"/>
      <point x="402" y="202" type="line" smooth="yes"/>
      <point x="402" y="235"/>
      <point x="419" y="256"/>
      <point x="452" y="262" type="curve" smooth="yes"/>
    </contour>
  </outline>
</glyph>
<glyph name="d" format="2">
  <advance width="3211"/>
  <unicode hex="0064"/>
  <anchor x="1606" y="0" name="bottom"/>
  <anchor x="2458" y="1280" name="center"/>
  <anchor x="1606" y="1200" name="top"/>
  <anchor x="3291" y="1600" name="topright"/>
  <outline>
    <contour>
      <point x="400" y="0" type="curve" smooth="yes"/>
      <point x="2338" y="0" type="line" smooth="yes"/>
      <point x="2373" y="0"/>
      <point x="2398" y="9"/>
      <point x="2425" y="33" type="curve" smooth="yes"/>
      <point x="2842" y="402" type="line" smooth="yes"/>
      <point x="2869" y="426"/>
      <point x="2881" y="452"/>
      <point x="2881" y="488" type="curve" smooth="yes"/>
      <point x="2881" y="1600" type="line"/>
      <point x="2879" y="1600" type="line"/>
      <point x="2879" y="1200" type="line"/>
      <point x="873" y="1200" type="line" smooth="yes"/>
      <point x="838" y="1200"/>
      <point x="814" y="1191"/>
      <point x="787" y="1167" type="curve" smooth="yes"/>
      <point x="369" y="802" type="line" smooth="yes"/>
      <point x="342" y="778"/>
      <point x="330" y="752"/>
      <point x="330" y="716" type="curve" smooth="yes"/>
      <point x="330" y="70" type="line" smooth="yes"/>
      <point x="330" y="25"/>
      <point x="355" y="0"/>
    </contour>
    <contour>
      <point x="332" y="472" type="curve" smooth="yes"/>
      <point x="332" y="525" type="line" smooth="yes"/>
      <point x="332" y="561"/>
      <point x="344" y="586"/>
      <point x="372" y="610" type="curve" smooth="yes"/>
      <point x="560" y="767" type="line" smooth="yes"/>
      <point x="587" y="790"/>
      <point x="612" y="798"/>
      <point x="647" y="798" type="curve" smooth="yes"/>
      <point x="2879" y="798" type="line"/>
      <point x="2879" y="668" type="line" smooth="yes"/>
      <point x="2879" y="631"/>
      <point x="2867" y="607"/>
      <point x="2838" y="583" type="curve" smooth="yes"/>
      <point x="2654" y="433" type="line" smooth="yes"/>
      <point x="2627" y="411"/>
      <point x="2602" y="402"/>
      <point x="2567" y="402" type="curve" smooth="yes"/>
      <point x="402" y="402" type="line" smooth="yes"/>
      <point x="357" y="402"/>
      <point x="332" y="427"/>
    </contour>
  </outline>
</glyph>
<glyph name="f" format="2">
  <advance width="2950"/>
  <unicode hex="0066"/>
  <outline>
    <contour>
      <point x="707" y="0" type="line"/>
      <point x="707" y="1010" type="line" smooth="yes"/>
      <point x="707" y="1046"/>
      <point x="718" y="1071"/>
      <point x="745" y="1096" type="curve" smooth="yes"/>
      <point x="1264" y="1567" type="line" smooth="yes"/>
      <point x="1290" y="1591"/>
      <point x="1316" y="1600"/>
      <point x="1351" y="1600" type="curve" smooth="yes"/>
      <point x="2860" y="1600" type="line"/>
      <point x="2860" y="1198" type="line"/>
      <point x="1032" y="1198" type="line" smooth="yes"/>
      <point x="997" y="1198"/>
      <point x="972" y="1188"/>
      <point x="945" y="1166" type="curve" smooth="yes"/>
      <point x="749" y="1002" type="line" smooth="yes"/>
      <point x="721" y="979"/>
      <point x="709" y="952"/>
      <point x="709" y="916" type="curve" smooth="yes"/>
      <point x="709" y="0" type="line"/>
    </contour>
    <contour>
      <point x="189" y="388" type="line"/>
      <point x="189" y="790" type="line"/>
      <point x="2729" y="790" type="line"/>
      <point x="2729" y="388" type="line"/>
    </contour>
  </outline>
</glyph>
<glyph name="m" format="2">
  <advance width="4914"/>
  <unicode hex="006D"/>
  <anchor x="2475" y="0" name="bottom"/>
  <anchor x="2475" y="1200" name="top"/>
  <outline>
    <contour>
      <point x="330" y="0" type="line"/>
      <point x="332" y="0" type="line"/>
      <point x="332" y="517" type="line" smooth="yes"/>
      <point x="332" y="553"/>
      <point x="341" y="581"/>
      <point x="368" y="604" type="curve" smooth="yes"/>
      <point x="556" y="762" type="line" smooth="yes"/>
      <point x="583" y="785"/>
      <point x="607" y="798"/>
      <point x="643" y="798" type="curve" smooth="yes"/>
      <point x="2371" y="798" type="line" smooth="yes"/>
      <point x="2416" y="798"/>
      <point x="2441" y="773"/>
      <point x="2441" y="728" type="curve" smooth="yes"/>
      <point x="2441" y="0" type="line"/>
      <point x="2443" y="0" type="line"/>
      <point x="2443" y="576" type="line"/>
      <point x="2661" y="757" type="line" smooth="yes"/>
      <point x="2689" y="780"/>
      <point x="2709" y="798"/>
      <point x="2746" y="798" type="curve" smooth="yes"/>
      <point x="4482" y="798" type="line" smooth="yes"/>
      <point x="4527" y="798"/>
      <point x="4552" y="773"/>
      <point x="4552" y="728" type="curve" smooth="yes"/>
      <point x="4552" y="0" type="line"/>
      <point x="4554" y="0" type="line"/>
      <point x="4554" y="1130" type="line" smooth="yes"/>
      <point x="4554" y="1175"/>
      <point x="4529" y="1200"/>
      <point x="4484" y="1200" type="curve" smooth="yes"/>
      <point x="3002" y="1200" type="line" smooth="yes"/>
      <point x="2964" y="1200"/>
      <point x="2947" y="1179"/>
      <point x="2918" y="1154" type="curve" smooth="yes"/>
      <point x="2444" y="739" type="line"/>
      <point x="2443" y="739" type="line"/>
      <point x="2443" y="1130" type="line" smooth="yes"/>
      <point x="2443" y="1175"/>
      <point x="2418" y="1200"/>
      <point x="2373" y="1200" type="curve" smooth="yes"/>
      <point x="868" y="1200" type="line" smooth="yes"/>
      <point x="832" y="1200"/>
      <point x="808" y="1187"/>
      <point x="781" y="1164" type="curve" smooth="yes"/>
      <point x="366" y="800" type="line" smooth="yes"/>
      <point x="339" y="777"/>
      <point x="330" y="749"/>
      <point x="330" y="713" type="curve" smooth="yes"/>
    </contour>
  </outline>
</glyph>
<glyph name="q" format="2">
  <advance width="3297"/>
  <unicode hex="0071"/>
  <anchor x="1661" y="-300" name="bottom"/>
  <anchor x="1661" y="1200" name="top"/>
  <outline>
    <contour>
      <point x="2888" y="1130" type="curve" smooth="yes"/>
      <point x="2888" y="-300" type="line"/>
      <point x="2886" y="-300" type="line"/>
      <point x="2886" y="791" type="line" smooth="yes"/>
      <point x="2886" y="795"/>
      <point x="2883" y="798"/>
      <point x="2879" y="798" type="curve" smooth="yes"/>
      <point x="681" y="798" type="line" smooth="yes"/>
      <point x="678" y="798"/>
      <point x="676" y="797"/>
      <point x="672" y="794" type="curve" smooth="yes"/>
      <point x="341" y="546" type="line" smooth="yes"/>
      <point x="336" y="542"/>
      <point x="332" y="537"/>
      <point x="332" y="531" type="curve" smooth="yes"/>
      <point x="332" y="410" type="line" smooth="yes"/>
      <point x="332" y="406"/>
      <point x="335" y="402"/>
      <point x="339" y="402" type="curve" smooth="yes"/>
      <point x="2620" y="402" type="line" smooth="yes"/>
      <point x="2623" y="402"/>
      <point x="2627" y="403"/>
      <point x="2629" y="405" type="curve" smooth="yes"/>
      <point x="2887" y="617" type="line"/>
      <point x="2887" y="435" type="line"/>
      <point x="2431" y="33" type="line" smooth="yes"/>
      <point x="2404" y="9"/>
      <point x="2379" y="0"/>
      <point x="2344" y="0" type="curve" smooth="yes"/>
      <point x="400" y="0" type="line" smooth="yes"/>
      <point x="355" y="0"/>
      <point x="330" y="25"/>
      <point x="330" y="70" type="curve" smooth="yes"/>
      <point x="330" y="718" type="line" smooth="yes"/>
      <point x="330" y="754"/>
      <point x="338" y="782"/>
      <point x="367" y="804" type="curve" smooth="yes"/>
      <point x="838" y="1165" type="line" smooth="yes"/>
      <point x="871" y="1190"/>
      <point x="902" y="1200"/>
      <point x="937" y="1200" type="curve" smooth="yes"/>
      <point x="2818" y="1200" type="line" smooth="yes"/>
      <point x="2863" y="1200"/>
      <point x="2888" y="1175"/>
    </contour>
  </outline>
</glyph>
<glyph name="s" format="2">
  <advance width="3232"/>
  <unicode hex="0073"/>
  <anchor x="1576" y="0" name="bottom"/>
  <anchor x="1576" y="1200" name="top"/>
  <outline>
    <contour>
      <point x="281" y="0" type="line"/>
      <point x="2415" y="0" type="line" smooth="yes"/>
      <point x="2450" y="0"/>
      <point x="2475" y="10"/>
      <point x="2502" y="33" type="curve" smooth="yes"/>
      <point x="2913" y="384" type="line" smooth="yes"/>
      <point x="2942" y="408"/>
      <point x="2952" y="449"/>
      <point x="2952" y="485" type="curve" smooth="yes"/>
      <point x="2952" y="711" type="line" smooth="yes"/>
      <point x="2952" y="756"/>
      <point x="2927" y="781"/>
      <point x="2882" y="781" type="curve" smooth="yes"/>
      <point x="289" y="791" type="line" smooth="yes"/>
      <point x="285" y="791"/>
      <point x="282" y="788"/>
      <point x="282" y="734" type="curve" smooth="yes"/>
      <point x="282" y="618" type="line" smooth="yes"/>
      <point x="282" y="613"/>
      <point x="287" y="600"/>
      <point x="291" y="603" type="curve" smooth="yes"/>
      <point x="511" y="769" type="line" smooth="yes"/>
      <point x="538" y="790"/>
      <point x="564" y="808"/>
      <point x="598" y="808" type="curve" smooth="yes"/>
      <point x="2932" y="798" type="line"/>
      <point x="2932" y="1200" type="line"/>
      <point x="827" y="1200" type="line" smooth="yes"/>
      <point x="792" y="1200"/>
      <point x="768" y="1190"/>
      <point x="741" y="1168" type="curve" smooth="yes"/>
      <point x="319" y="813" type="line" smooth="yes"/>
      <point x="291" y="790"/>
      <point x="280" y="763"/>
      <point x="280" y="727" type="curve" smooth="yes"/>
      <point x="280" y="517" type="line" smooth="yes"/>
      <point x="280" y="472"/>
      <point x="305" y="428"/>
      <point x="350" y="428" type="curve" smooth="yes"/>
      <point x="2923" y="428" type="line" smooth="yes"/>
      <point x="2940" y="428"/>
      <point x="2950" y="442"/>
      <point x="2950" y="467" type="curve" smooth="yes"/>
      <point x="2950" y="628" type="line" smooth="yes"/>
      <point x="2950" y="634"/>
      <point x="2945" y="626"/>
      <point x="2941" y="622" type="curve" smooth="yes"/>
      <point x="2723" y="435" type="line" smooth="yes"/>
      <point x="2696" y="412"/>
      <point x="2671" y="402"/>
      <point x="2636" y="402" type="curve" smooth="yes"/>
      <point x="281" y="402" type="line"/>
    </contour>
  </outline>
</glyph>
<glyph name="v" format="2">
  <advance width="2953"/>
  <unicode hex="0076"/>
  <outline>
    <contour>
      <point x="430" y="0" type="curve" smooth="yes"/>
      <point x="2113" y="0" type="line" smooth="yes"/>
      <point x="2151" y="0"/>
      <point x="2177" y="15"/>
      <point x="2197" y="47" type="curve" smooth="yes"/>
      <point x="2903" y="1200" type="line"/>
      <point x="2901" y="1200" type="line"/>
      <point x="2446" y="459" type="line" smooth="yes"/>
      <point x="2426" y="427"/>
      <point x="2400" y="412"/>
      <point x="2362" y="412" type="curve" smooth="yes"/>
      <point x="432" y="412" type="line" smooth="yes"/>
      <point x="387" y="412"/>
      <point x="362" y="437"/>
      <point x="362" y="482" type="curve" smooth="yes"/>
      <point x="362" y="1200" type="line"/>
      <point x="360" y="1200" type="line"/>
      <point x="360" y="70" type="line" smooth="yes"/>
      <point x="360" y="25"/>
      <point x="385" y="0"/>
    </contour>
  </outline>
</glyph>
<glyph name="z" format="2">
  <advance width="2787"/>
  <unicode hex="007A"/>
  <anchor x="1394" y="0" name="bottom"/>
  <anchor x="1394" y="600" name="center"/>
  <anchor x="1394" y="1200" name="top"/>
  <outline>
    <contour>
      <point x="370" y="0" type="curve" smooth="yes"/>
      <point x="2486" y="0" type="line"/>
      <point x="2486" y="362" type="line"/>
      <point x="372" y="362" type="line" smooth="yes"/>
      <point x="347" y="362"/>
      <point x="342" y="399"/>
      <point x="342" y="384" type="curve" smooth="yes"/>
      <point x="342" y="79" type="line" smooth="yes"/>
      <point x="342" y="38"/>
      <point x="362" y="145"/>
      <point x="402" y="156" type="curve" smooth="yes"/>
      <point x="2397" y="716" type="line" smooth="yes"/>
      <point x="2437" y="727"/>
      <point x="2457" y="752"/>
      <point x="2457" y="793" type="curve" smooth="yes"/>
      <point x="2457" y="1160" type="line" smooth="yes"/>
      <point x="2457" y="1185"/>
      <point x="2442" y="1200"/>
      <point x="2407" y="1200" type="curve" smooth="yes"/>
      <point x="346" y="1200" type="line"/>
      <point x="346" y="828" type="line"/>
      <point x="2405" y="828" type="line" smooth="yes"/>
      <point x="2440" y="828"/>
      <point x="2455" y="763"/>
      <point x="2455" y="788" type="curve" smooth="yes"/>
      <point x="2455" y="1095" type="line" smooth="yes"/>
      <point x="2455" y="1136"/>
      <point x="2435" y="1029"/>
      <point x="2395" y="1018" type="curve" smooth="yes"/>
      <point x="400" y="457" type="line" smooth="yes"/>
      <point x="360" y="446"/>
      <point x="340" y="421"/>
      <point x="340" y="380" type="curve" smooth="yes"/>
      <point x="340" y="22" type="line" smooth="yes"/>
      <point x="340" y="7"/>
      <point x="345" y="0"/>
    </contour>
  </outline>
</glyph>
